<svg version="1.1" xmlns="http://www.w3.org/2000/svg" xmlns:xlink="http://www.w3.org/1999/xlink" width="82.09431" height="84.12378" viewBox="0,0,82.09431,84.12378"><g transform="translate(-198.92108,-126.67719)"><g data-paper-data="{&quot;isPaintingLayer&quot;:true}" fill-rule="nonzero" stroke-linejoin="miter" stroke-miterlimit="10" stroke-dasharray="" stroke-dashoffset="0" style="mix-blend-mode: normal"><path d="M248.05038,165.80363c0,0 -14.6342,4.1745 -24.1076,7.46647c-3.16509,1.09985 -5.98232,-0.17816 -7.19039,-0.82988c-5.60473,-3.02358 -4.85244,-14.62074 -2.81415,-14.95018c2.57084,-0.41549 8.26924,0.23071 8.26924,-1.03501c0,-7.75728 6.81453,-11.42855 15.00544,-11.42855c1.64445,0 3.2392,0.12253 3.2392,0.12253c0,0 -0.89533,6.60353 0.15647,10.60811c0.70848,2.69743 2.38174,5.77671 4.2021,7.57666c1.93971,1.91796 3.23969,2.46985 3.23969,2.46985zM228.4597,159.86513c1.51879,0 2.75,-1.23121 2.75,-2.75c0,-1.51879 -1.23121,-2.75 -2.75,-2.75c-1.51879,0 -2.75,1.23121 -2.75,2.75c0,1.51879 1.23121,2.75 2.75,2.75z" fill="#F4F0E0" stroke="#F4F0E0" stroke-width="1.5" stroke-linecap="butt"/><path d="M254.53264,152.27253c2.09143,5.89087 1.29157,11.55227 -1.78654,12.6451c-3.07812,1.09282 -7.26886,-2.79677 -9.36029,-8.68764c-2.09143,-5.89087 -0.37462,-11.20432 -0.37462,-11.20432c0,0 9.43003,1.35599 11.52146,7.24686z" fill="#F4F0E0" stroke="#ffffff" stroke-width="0" stroke-linecap="butt"/><path d="M220.3277,188.71358c0,0 2.82781,-2.58151 4.93106,-5.30644c0.51804,0.34903 1.14209,0.55277 1.81372,0.55277c1.79493,0 3.25,-1.45507 3.25,-3.25c0,-1.31957 -0.78643,-2.45547 -1.91616,-2.96456l24.00951,-6.56527l10.26081,15.40433c0,0 -14.79601,6.32957 -22.02219,6.69288c-6.87236,0.34552 -20.32676,-4.56371 -20.32676,-4.56371z" fill="#F4F0E0" stroke="#F4F0E0" stroke-width="0" stroke-linecap="butt"/><path d="M275.34405,148.83346c0,0 8.60832,17.15592 1.09236,17.77549c-0.14524,0.09647 -21.13486,0.52328 -21.13486,0.52328" fill="none" stroke="#F4F0E0" stroke-width="3" stroke-linecap="round"/><path d="M261.40756,203.86531c-5.95068,3.56527 -13.59264,5.43566 -21.00404,5.43566c-22.08169,0 -39.98244,-18.16018 -39.98244,-40.56189c0,-22.40172 17.90075,-40.56189 39.98244,-40.56189c17.3806,0 32.17096,11.25084 37.6808,26.96526" fill="none" stroke="#F4F0E0" stroke-width="3" stroke-linecap="butt"/><path d="M273.80332,181.90269c2.46762,1.42106 1.61834,7.52143 -1.89692,13.62554c-3.51526,6.10411 -10.83296,8.47941 -10.83296,8.47941c0,0 -1.61834,-7.52143 1.89692,-13.62554c3.51526,-6.10411 8.36534,-9.90047 10.83296,-8.47941z" fill="none" stroke="#F4F0E0" stroke-width="3" stroke-linecap="butt"/><path d="M229.28593,180.69934c0,1.21303 -1.0227,2.19639 -2.28424,2.19639c-1.26156,0 -2.28423,-0.98336 -2.28423,-2.19639c0,-1.21303 1.02269,-2.19638 2.28423,-2.19638c1.26156,0 2.28424,0.98335 2.28424,2.19638z" fill="#F4F0E0" stroke="none" stroke-width="0" stroke-linecap="butt"/><path d="M226.0224,175.78009l25.45235,-7.36719" fill="#ff0000" stroke="#F4F0E0" stroke-width="3" stroke-linecap="round"/></g></g></svg>